<svg width="36" height="36" viewBox="0 0 36 36" fill="none" xmlns="http://www.w3.org/2000/svg" xmlns:xlink="http://www.w3.org/1999/xlink">
<path d="M36,18C36,8.059 27.941,0 18,0C8.059,0 0,8.059 0,18C0,26.441 5.812,33.525 13.652,35.47L13.652,23.501L9.94,23.501L9.94,18L13.652,18L13.652,15.63C13.652,9.503 16.425,6.664 22.44,6.664C23.58,6.664 25.548,6.888 26.353,7.111L26.353,12.097C25.928,12.052 25.19,12.03 24.273,12.03C21.322,12.03 20.182,13.148 20.182,16.055L20.182,18L26.061,18L25.051,23.501L20.182,23.501L20.182,35.868C29.094,34.792 36.001,27.203 36.001,18L36,18Z" fill="#0866FF"/>
<path d="M25.05,23.501L26.06,18L20.181,18L20.181,16.055C20.181,13.148 21.321,12.03 24.272,12.03C25.189,12.03 25.927,12.052 26.352,12.097L26.352,7.111C25.547,6.887 23.579,6.664 22.439,6.664C16.424,6.664 13.651,9.503 13.651,15.63L13.651,18L9.939,18L9.939,23.501L13.651,23.501L13.651,35.47C15.044,35.816 16.5,36 17.999,36C18.737,36 19.465,35.955 20.18,35.868L20.18,23.501L25.049,23.501L25.05,23.501Z" fill="#FFFFFF"/>
</svg>
