<svg width="38" height="36" viewBox="0 0 38 36" fill="none" xmlns="http://www.w3.org/2000/svg" xmlns:xlink="http://www.w3.org/1999/xlink">
<path d="M19,14.727L19,21.698L28.687,21.698C28.262,23.94 26.985,25.838 25.071,27.115L30.913,31.647C34.316,28.506 36.28,23.891 36.28,18.409C36.28,17.133 36.165,15.906 35.953,14.727L19,14.727Z" fill="#4285F4"/>
<path d="M8.913,21.426L7.595,22.435L2.932,26.067C5.893,31.942 11.964,36 19,36C23.86,36 27.935,34.396 30.913,31.647L25.071,27.115C23.467,28.195 21.422,28.849 19,28.849C14.32,28.849 10.344,25.691 8.92,21.436L8.913,21.426Z" fill="#34A853"/>
<path d="M2.931,9.933C1.704,12.354 1,15.087 1,18C1,20.912 1.704,23.645 2.931,26.067C2.931,26.083 8.92,21.42 8.92,21.42C8.56,20.34 8.347,19.194 8.347,18C8.347,16.805 8.56,15.66 8.92,14.58L2.931,9.933Z" fill="#FBBC05"/>
<path d="M19.001,7.167C21.652,7.167 24.008,8.084 25.89,9.851L31.044,4.696C27.919,1.784 23.861,0 19.001,0C11.964,0 5.893,4.042 2.932,9.933L8.921,14.58C10.344,10.325 14.321,7.167 19.001,7.167Z" fill="#EA4335"/>
</svg>
