<svg width="566" height="112" viewBox="0 0 566 112" fill="none" xmlns="http://www.w3.org/2000/svg" xmlns:xlink="http://www.w3.org/1999/xlink">
<path d="M0,0L0,112L566,112L566,0L0,0ZM446.59,79.845C444.712,82.033 442.494,83.635 439.938,84.64C437.382,85.656 434.522,86.158 431.372,86.158C427.872,86.158 424.806,85.441 422.152,84.006C419.512,82.583 417.488,80.49 416.082,77.752C415.526,76.676 415.114,75.492 414.774,74.26L459.904,74.152C460.244,72.801 460.462,71.558 460.546,70.422C460.632,69.285 460.668,68.173 460.668,67.073C460.668,61.178 459.384,55.916 456.828,51.288C454.27,46.661 450.684,43.037 446.08,40.43C441.476,37.824 436.268,36.52 430.476,36.52C424.334,36.52 418.784,37.907 413.842,40.694C408.898,43.468 404.998,47.259 402.138,52.066C399.29,56.861 397.848,62.302 397.848,68.365C397.848,74.427 399.302,79.988 402.198,84.783C405.106,89.578 409.092,93.381 414.168,96.155C416.252,97.303 418.47,98.188 420.796,98.87L367.172,98.87L394.262,37.943L376.356,37.943L361.32,76.544L346.286,37.943L327.87,37.943L355.094,98.87L320.456,98.87L320.456,37.919L303.566,37.919L303.566,43.731C301.846,41.973 299.858,40.478 297.544,39.306C294.044,37.537 290.13,36.652 285.78,36.652C280.062,36.652 274.974,38.039 270.478,40.825C265.996,43.599 262.482,47.39 259.926,52.197C257.37,56.993 256.086,62.433 256.086,68.484C256.086,74.535 257.37,79.856 259.926,84.652C262.482,89.447 265.996,93.238 270.478,96.024C272.442,97.244 274.526,98.176 276.706,98.858L225.118,98.858L225.118,65.339C225.118,60.712 226.258,57.291 228.51,55.103C230.776,52.915 233.696,51.815 237.282,51.815C238.99,51.815 240.504,52.042 241.826,52.508C243.146,52.975 244.272,53.752 245.218,54.852L255.698,42.858C253.736,40.67 251.59,39.091 249.24,38.123C246.89,37.154 244.176,36.664 241.11,36.664C234.204,36.664 228.922,38.828 225.252,43.169C225.202,43.229 225.166,43.288 225.118,43.348L225.118,37.931L208.362,37.931L208.362,98.858L193.775,98.858L193.775,37.919L176.886,37.919L176.886,43.731C175.166,41.973 173.179,40.478 170.865,39.306C167.364,37.537 163.45,36.652 159.101,36.652C153.382,36.652 148.294,38.039 143.799,40.825C139.316,43.599 135.803,47.39 133.246,52.197C130.69,56.993 129.406,62.433 129.406,68.484C129.406,74.535 130.69,79.856 133.246,84.652C135.803,89.447 139.316,93.238 143.799,96.024C145.762,97.244 147.845,98.176 150.026,98.858L109.318,98.858L109.318,52.448L123.772,52.448L123.772,37.931L109.318,37.931L109.318,13.154L471.172,13.154L471.172,98.846L442.058,98.846C443.222,98.511 444.348,98.105 445.462,97.65C449.728,95.88 453.434,93.226 456.596,89.698L446.614,79.845L446.59,79.845ZM414.774,61.895C415.078,60.771 415.452,59.683 415.95,58.703C417.27,56.048 419.172,54.003 421.644,52.58C424.128,51.145 427.01,50.428 430.354,50.428C433.504,50.428 436.158,51.061 438.278,52.317C440.41,53.584 442.082,55.438 443.282,57.877C443.852,59.049 444.288,60.365 444.614,61.812L414.786,61.895L414.774,61.895ZM304.56,68.484C304.56,73.196 303.118,77.118 300.21,80.227C297.314,83.336 293.51,84.903 288.834,84.903C285.842,84.903 283.164,84.185 280.776,82.75C278.378,81.327 276.524,79.39 275.204,76.939C273.884,74.499 273.228,71.641 273.228,68.353C273.228,65.064 273.884,62.326 275.204,59.886C276.524,57.447 278.354,55.51 280.716,54.075C283.054,52.64 285.768,51.922 288.834,51.922C291.898,51.922 294.722,52.616 297.024,54.003C299.326,55.39 301.156,57.351 302.536,59.874C303.906,62.398 304.572,65.268 304.572,68.46L304.56,68.484ZM297.594,97.531C299.882,96.383 301.846,94.912 303.542,93.166L303.542,98.846L294.358,98.846C295.472,98.475 296.552,98.045 297.594,97.531ZM177.892,68.484C177.892,73.196 176.45,77.118 173.542,80.227C170.647,83.336 166.843,84.903 162.166,84.903C159.173,84.903 156.496,84.185 154.109,82.75C151.71,81.327 149.857,79.39 148.536,76.939C147.215,74.499 146.561,71.641 146.561,68.353C146.561,65.064 147.215,62.326 148.536,59.886C149.857,57.447 151.686,55.51 154.049,54.075C156.387,52.64 159.101,51.922 162.166,51.922C165.231,51.922 168.054,52.616 170.356,54.003C172.658,55.39 174.487,57.351 175.869,59.874C177.238,62.398 177.904,65.268 177.904,68.46L177.892,68.484ZM170.926,97.531C173.215,96.383 175.178,94.912 176.874,93.166L176.874,98.846L167.691,98.846C168.805,98.475 169.884,98.045 170.926,97.531ZM13.327,13.154L92.538,13.154L92.538,37.919L78.084,37.919L78.084,52.436L92.538,52.436L92.538,98.846L13.327,98.846L13.327,13.154ZM552.672,98.846L487.916,98.846L487.916,13.154L552.672,13.154L552.672,98.846Z" fill="#FFFFFF"/>
</svg>
